<?xml version="1.0" encoding="UTF-8"?>
<!DOCTYPE svg PUBLIC "-//W3C//DTD SVG 1.1//EN" "http://www.w3.org/Graphics/SVG/1.1/DTD/svg11.dtd">
<!-- Creator: CorelDRAW 2019 (64 Bit) -->
<svg xmlns="http://www.w3.org/2000/svg" xml:space="preserve" width="315px" height="557px" version="1.1" style="shape-rendering:geometricPrecision; text-rendering:geometricPrecision; image-rendering:optimizeQuality; fill-rule:evenodd; clip-rule:evenodd"
viewBox="0 0 7.55 13.33"
 xmlns:xlink="http://www.w3.org/1999/xlink">
 <defs>
  <style type="text/css">
   <![CDATA[
    .fil0 {fill:#010672}
    .fil1 {fill:#010672;fill-rule:nonzero}
   ]]>
  </style>
 </defs>
 <g id="Camada_x0020_1">
  <metadata id="CorelCorpID_0Corel-Layer"/>
  <g id="_2526974861808">
   <circle class="fil0" cx="1.13" cy="2.89" r="0.11"/>
   <circle class="fil0" cx="2.64" cy="2.86" r="0.11"/>
   <circle class="fil0" cx="2.5" cy="4.29" r="0.11"/>
   <circle class="fil0" cx="3.69" cy="3.72" r="0.11"/>
   <circle class="fil0" cx="5.29" cy="3.94" r="0.11"/>
   <circle class="fil0" cx="1.36" cy="0.66" r="0.11"/>
   <circle class="fil0" cx="3.08" cy="1.37" r="0.11"/>
   <circle class="fil0" cx="5.89" cy="0.81" r="0.11"/>
   <circle class="fil0" cx="7.38" cy="0.73" r="0.11"/>
   <polygon class="fil1" points="1.4,0.63 3.06,1.31 3.05,1.35 1.38,0.67 "/>
   <polygon class="fil1" points="1.41,0.66 2.64,2.82 2.6,2.84 1.37,0.68 "/>
   <polygon class="fil1" points="1.4,0.67 1.17,2.89 1.13,2.89 1.36,0.66 "/>
   <polygon class="fil1" points="3.03,1.41 1.2,2.9 1.17,2.86 3,1.38 "/>
   <polygon class="fil1" points="1.33,0.71 0.06,2.22 0.03,2.19 1.3,0.69 "/>
   <polygon class="fil1" points="1.06,2.9 0.01,2.55 0.02,2.51 1.07,2.86 "/>
   <polygon class="fil1" points="1.07,2.93 0.06,2.97 0.06,2.93 1.07,2.89 "/>
   <polygon class="fil1" points="3.61,3.7 1.18,2.94 1.19,2.91 3.62,3.67 "/>
   <polygon class="fil1" points="2.54,2.87 1.19,2.9 1.19,2.86 2.54,2.84 "/>
   <polygon class="fil1" points="5.21,3.93 2.71,2.89 2.72,2.86 5.22,3.9 "/>
   <polygon class="fil1" points="3.6,3.68 2.68,2.91 2.7,2.89 3.63,3.65 "/>
   <polygon class="fil1" points="3.16,1.41 5.31,3.95 5.27,3.97 3.13,1.43 "/>
   <polygon class="fil1" points="5.91,0.89 5.31,3.9 5.27,3.89 5.87,0.88 "/>
   <polygon class="fil1" points="3.08,1.41 2.68,2.81 2.64,2.8 3.04,1.4 "/>
   <polygon class="fil1" points="5.82,0.83 2.73,2.83 2.7,2.79 5.8,0.8 "/>
   <polygon class="fil1" points="3.16,1.31 5.83,0.77 5.84,0.81 3.17,1.35 "/>
   <polygon class="fil1" points="5.93,0.75 7.34,0.73 7.34,0.77 5.93,0.79 "/>
   <polygon class="fil1" points="7.55,0.05 7.43,0.7 7.39,0.7 7.52,0.05 "/>
   <polygon class="fil1" points="7.02,0.02 7.37,0.69 7.33,0.71 6.99,0.04 "/>
   <polygon class="fil1" points="6.36,0.06 5.93,0.76 5.9,0.74 6.33,0.04 "/>
   <polygon class="fil1" points="5.85,0.04 5.91,0.72 5.88,0.72 5.81,0.04 "/>
   <polygon class="fil1" points="5.71,0.03 5.9,0.74 5.87,0.75 5.67,0.04 "/>
   <polygon class="fil1" points="5.13,0.02 5.88,0.73 5.86,0.76 5.1,0.04 "/>
   <polygon class="fil1" points="4.54,0.05 3.16,1.32 3.13,1.29 4.51,0.02 "/>
   <polygon class="fil1" points="3.74,0.02 3.13,1.29 3.1,1.27 3.7,0 "/>
   <polygon class="fil1" points="1.38,0.03 1.38,0.59 1.35,0.59 1.34,0.03 "/>
   <polygon class="fil1" points="2.45,0.05 1.43,0.65 1.42,0.62 2.43,0.02 "/>
   <polygon class="fil1" points="0.27,0.03 1.3,0.6 1.28,0.63 0.25,0.06 "/>
   <polygon class="fil1" points="2.44,4.28 0.04,3.26 0.06,3.23 2.46,4.25 "/>
   <polygon class="fil1" points="2.42,4.23 1.16,2.95 1.19,2.93 2.44,4.2 "/>
   <circle class="fil0" cx="0.11" cy="5.1" r="0.11"/>
   <polygon class="fil1" points="0.13,5.01 1.07,2.96 1.11,2.97 0.16,5.02 "/>
   <polygon class="fil1" points="2.49,4.19 2.62,2.92 2.66,2.93 2.53,4.2 "/>
   <polygon class="fil1" points="2.59,4.22 3.62,3.7 3.64,3.74 2.6,4.26 "/>
   <polygon class="fil1" points="0.18,5.05 2.43,4.28 2.44,4.32 0.19,5.09 "/>
   <circle class="fil0" cx="0.27" cy="6.92" r="0.11"/>
   <polygon class="fil1" points="0.24,6.85 0.11,5.14 0.14,5.14 0.27,6.85 "/>
   <polygon class="fil1" points="0.3,6.84 2.41,4.33 2.44,4.36 0.33,6.86 "/>
   <circle class="fil0" cx="2.8" cy="6.98" r="0.11"/>
   <circle class="fil0" cx="4.64" cy="7.36" r="0.11"/>
   <polygon class="fil1" points="2.76,6.99 0.16,5.13 0.18,5.1 2.78,6.95 "/>
   <polygon class="fil1" points="2.76,6.93 2.48,4.33 2.51,4.33 2.8,6.93 "/>
   <polygon class="fil1" points="2.78,6.93 3.66,3.76 3.69,3.77 2.82,6.94 "/>
   <polygon class="fil1" points="4.59,7.26 3.7,3.79 3.74,3.78 4.63,7.26 "/>
   <polygon class="fil1" points="5.22,3.96 3.75,3.75 3.75,3.72 5.23,3.92 "/>
   <polygon class="fil1" points="2.7,7 0.33,6.93 0.33,6.89 2.7,6.96 "/>
   <polygon class="fil1" points="4.55,7.35 2.85,7 2.86,6.97 4.56,7.31 "/>
   <polygon class="fil1" points="6.06,8.15 2.85,7.04 2.86,7 6.07,8.11 "/>
   <circle class="fil0" cx="6.13" cy="8.17" r="0.11"/>
   <polygon class="fil1" points="6.07,8.16 4.7,7.41 4.72,7.38 6.09,8.13 "/>
   <circle class="fil0" cx="3.22" cy="8.37" r="0.11"/>
   <circle class="fil0" cx="1.81" cy="8.74" r="0.11"/>
   <circle class="fil0" cx="1.21" cy="10.84" r="0.11"/>
   <circle class="fil0" cx="3.22" cy="10.62" r="0.11"/>
   <circle class="fil0" cx="5.23" cy="10.43" r="0.11"/>
   <circle class="fil0" cx="4.56" cy="11.89" r="0.11"/>
   <circle class="fil0" cx="2.64" cy="13.22" r="0.11"/>
   <polygon class="fil1" points="3.15,8.38 0.31,6.96 0.33,6.93 3.16,8.35 "/>
   <polygon class="fil1" points="1.76,8.7 0.3,6.98 0.33,6.95 1.79,8.68 "/>
   <polygon class="fil1" points="1.19,10.8 0.27,6.98 0.31,6.97 1.23,10.79 "/>
   <polygon class="fil1" points="1.85,8.66 2.73,7.04 2.76,7.06 1.88,8.68 "/>
   <polygon class="fil1" points="3.2,8.29 2.8,7.05 2.84,7.04 3.23,8.28 "/>
   <polygon class="fil1" points="3.29,8.29 4.58,7.39 4.6,7.42 3.31,8.32 "/>
   <polygon class="fil1" points="3.33,8.34 6.04,8.14 6.04,8.17 3.33,8.37 "/>
   <polygon class="fil1" points="1.91,8.7 3.18,8.39 3.19,8.42 1.92,8.73 "/>
   <polygon class="fil1" points="1.25,10.76 3.2,8.41 3.23,8.43 1.28,10.78 "/>
   <polygon class="fil1" points="5.13,10.37 3.3,8.44 3.33,8.41 5.16,10.35 "/>
   <polygon class="fil1" points="3.22,10.53 3.21,8.42 3.25,8.42 3.26,10.53 "/>
   <polygon class="fil1" points="3.29,10.58 6.08,8.18 6.1,8.21 3.31,10.6 "/>
   <polygon class="fil1" points="3.17,10.56 1.86,8.78 1.89,8.76 3.2,10.54 "/>
   <polygon class="fil1" points="1.21,10.76 1.78,8.79 1.82,8.8 1.25,10.77 "/>
   <polygon class="fil1" points="5.23,10.36 6.09,8.23 6.12,8.25 5.26,10.38 "/>
   <polygon class="fil1" points="4.58,11.81 5.19,10.46 5.22,10.47 4.61,11.82 "/>
   <polygon class="fil1" points="3.32,10.59 5.14,10.42 5.14,10.46 3.32,10.63 "/>
   <polygon class="fil1" points="1.27,10.8 3.16,10.61 3.16,10.64 1.27,10.83 "/>
   <polygon class="fil1" points="2.68,13.18 4.49,11.92 4.51,11.95 2.7,13.21 "/>
   <polygon class="fil1" points="2.59,13.23 1.22,10.87 1.26,10.85 2.62,13.21 "/>
   <polygon class="fil1" points="2.62,13.17 3.2,10.66 3.24,10.67 2.66,13.18 "/>
   <polygon class="fil1" points="4.48,11.88 1.28,10.85 1.29,10.82 4.5,11.84 "/>
   <polygon class="fil1" points="4.49,11.83 3.27,10.68 3.29,10.66 4.51,11.8 "/>
  </g>
 </g>
</svg>
