<?xml version="1.0" encoding="UTF-8"?>
<!DOCTYPE svg PUBLIC "-//W3C//DTD SVG 1.1//EN" "http://www.w3.org/Graphics/SVG/1.1/DTD/svg11.dtd">
<!-- Creator: CorelDRAW 2019 (64 Bit) -->
<svg xmlns="http://www.w3.org/2000/svg" xml:space="preserve" width="6.7732mm" height="6.7732mm" version="1.1" style="shape-rendering:geometricPrecision; text-rendering:geometricPrecision; image-rendering:optimizeQuality; fill-rule:evenodd; clip-rule:evenodd"
viewBox="0 0 61.96 61.96"
 xmlns:xlink="http://www.w3.org/1999/xlink">
 <defs>
  <style type="text/css">
   <![CDATA[
    .fil2 {fill:#BF7200}
    .fil1 {fill:#FF9800}
    .fil3 {fill:white}
    .fil0 {fill:url(#id0)}
   ]]>
  </style>
  <radialGradient id="id0" gradientUnits="objectBoundingBox" cx="34.0002%" cy="6.99965%" r="37.9998%" fx="34.0002%" fy="6.99965%">
   <stop offset="0" style="stop-opacity:1; stop-color:#BF7200"/>
   <stop offset="0.811765" style="stop-opacity:1; stop-color:#DF8500"/>
   <stop offset="1" style="stop-opacity:1; stop-color:#FF9800"/>
  </radialGradient>
 </defs>
 <g id="Camada_x0020_1">
  <metadata id="CorelCorpID_0Corel-Layer"/>
  <path class="fil0" d="M30.98 0c17.11,0 30.98,13.87 30.98,30.98 0,17.11 -13.87,30.98 -30.98,30.98 -17.11,0 -30.98,-13.87 -30.98,-30.98 0,-17.11 13.87,-30.98 30.98,-30.98zm0 3.91c14.95,0 27.06,12.12 27.06,27.06 0,14.95 -12.12,27.06 -27.06,27.06 -14.95,0 -27.06,-12.12 -27.06,-27.06 0,-14.95 12.12,-27.06 27.06,-27.06z"/>
  <polygon class="fil1" points="11.69,17.31 30.73,10.52 50.27,17.19 47.11,42.37 30.73,51.44 14.61,42.49 11.69,17.31 "/>
  <polygon class="fil2" points="50.27,17.19 30.73,10.52 30.73,51.44 47.11,42.37 50.27,17.19 "/>
  <path class="fil3" d="M30.76 15.3l0 0 -11.87 26.39 4.43 -0.09 2.39 -5.96 5.05 0 5.55 0 2.6 6.02 4.22 0.09 -12.37 -26.45 0 0zm0.03 8.47l4.01 8.38 -3.84 0 -0.21 0 -3.48 0 3.51 -8.38 0 0z"/>
 </g>
</svg>
