<?xml version="1.0" encoding="UTF-8"?>
<!DOCTYPE svg PUBLIC "-//W3C//DTD SVG 1.1//EN" "http://www.w3.org/Graphics/SVG/1.1/DTD/svg11.dtd">
<!-- Creator: CorelDRAW 2019 (64 Bit) -->
<svg xmlns="http://www.w3.org/2000/svg" xml:space="preserve" width="6.7732mm" height="6.7732mm" version="1.1" style="shape-rendering:geometricPrecision; text-rendering:geometricPrecision; image-rendering:optimizeQuality; fill-rule:evenodd; clip-rule:evenodd"
viewBox="0 0 1191.71 1191.71"
 xmlns:xlink="http://www.w3.org/1999/xlink">
 <defs>
  <style type="text/css">
   <![CDATA[
    .fil1 {fill:#FF9800}
    .fil2 {fill:white}
    .fil0 {fill:url(#id0)}
   ]]>
  </style>
  <radialGradient id="id0" gradientUnits="objectBoundingBox" cx="34.0002%" cy="6.99965%" r="37.9998%" fx="34.0002%" fy="6.99965%">
   <stop offset="0" style="stop-opacity:1; stop-color:#BF7200"/>
   <stop offset="0.811765" style="stop-opacity:1; stop-color:#DF8500"/>
   <stop offset="1" style="stop-opacity:1; stop-color:#FF9800"/>
  </radialGradient>
 </defs>
 <g id="Camada_x0020_1">
  <metadata id="CorelCorpID_0Corel-Layer"/>
  <path class="fil0" d="M595.86 0c329.09,0 595.86,266.77 595.86,595.86 0,329.09 -266.77,595.86 -595.86,595.86 -329.09,0 -595.86,-266.77 -595.86,-595.86 0,-329.09 266.77,-595.86 595.86,-595.86zm0 75.29c287.51,0 520.57,233.06 520.57,520.57 0,287.51 -233.06,520.57 -520.57,520.57 -287.51,0 -520.57,-233.06 -520.57,-520.57 0,-287.51 233.06,-520.57 520.57,-520.57z"/>
  <g id="_2316536625568">
   <path class="fil1" d="M282.85 828.16c0,44.58 36.14,80.72 80.72,80.72l464.58 0c44.58,0 80.72,-36.14 80.72,-80.72l0 -464.58c0,-44.58 -36.14,-80.72 -80.72,-80.72l-464.58 0c-44.58,0 -80.72,36.14 -80.72,80.72l0 464.58 0 0z"/>
   <path class="fil2" d="M542.46 559.77l0 -88.66 78.03 0c7.42,0 14.6,0.62 21.5,1.87 6.9,1.23 13,3.45 18.32,6.63 5.31,3.18 9.55,7.6 12.74,13.27 3.18,5.67 4.79,12.91 4.79,21.76 0,15.92 -4.79,27.43 -14.34,34.5 -9.55,7.09 -21.76,10.63 -36.63,10.63l-84.4 0zm-83.35 -153.42l0 379.04 183.67 0c17,0 33.54,-2.13 49.63,-6.37 16.12,-4.24 30.44,-10.79 43,-19.64 12.56,-8.85 22.57,-20.27 30,-34.24 7.44,-13.99 11.15,-30.53 11.15,-49.65 0,-23.7 -5.75,-43.97 -17.26,-60.77 -11.51,-16.82 -28.93,-28.59 -52.29,-35.31 17,-8.13 29.82,-18.58 38.5,-31.32 8.66,-12.74 13,-28.66 13,-47.79 0,-17.68 -2.92,-32.55 -8.76,-44.58 -5.84,-12.03 -14.08,-21.68 -24.69,-28.93 -10.61,-7.27 -23.37,-12.49 -38.22,-15.68 -14.87,-3.18 -31.34,-4.77 -49.37,-4.77l-178.37 0zm83.35 314.27l0 -104.05 90.77 0c18.05,0 32.57,4.15 43.53,12.47 10.98,8.32 16.47,22.2 16.47,41.68 0,9.91 -1.69,18.05 -5.05,24.42 -3.36,6.37 -7.88,11.42 -13.53,15.13 -5.67,3.71 -12.21,6.37 -19.65,7.95 -7.42,1.6 -15.22,2.39 -23.35,2.39l-89.19 0z"/>
  </g>
 </g>
</svg>
