<?xml version="1.0" encoding="UTF-8"?>
<!DOCTYPE svg PUBLIC "-//W3C//DTD SVG 1.1//EN" "http://www.w3.org/Graphics/SVG/1.1/DTD/svg11.dtd">
<!-- Creator: CorelDRAW 2019 (64 Bit) -->
<svg xmlns="http://www.w3.org/2000/svg" xml:space="preserve" width="6.7732mm" height="6.7732mm" version="1.1" style="shape-rendering:geometricPrecision; text-rendering:geometricPrecision; image-rendering:optimizeQuality; fill-rule:evenodd; clip-rule:evenodd"
viewBox="0 0 61.96 61.96"
 xmlns:xlink="http://www.w3.org/1999/xlink">
 <defs>
  <style type="text/css">
   <![CDATA[
    .fil1 {fill:#FF9800}
    .fil0 {fill:url(#id0)}
   ]]>
  </style>
  <radialGradient id="id0" gradientUnits="objectBoundingBox" cx="34.0002%" cy="6.99965%" r="37.9998%" fx="34.0002%" fy="6.99965%">
   <stop offset="0" style="stop-opacity:1; stop-color:#BF7200"/>
   <stop offset="0.811765" style="stop-opacity:1; stop-color:#DF8500"/>
   <stop offset="1" style="stop-opacity:1; stop-color:#FF9800"/>
  </radialGradient>
 </defs>
 <g id="Camada_x0020_1">
  <metadata id="CorelCorpID_0Corel-Layer"/>
  <path class="fil0" d="M30.98 0c17.11,0 30.98,13.87 30.98,30.98 0,17.11 -13.87,30.98 -30.98,30.98 -17.11,0 -30.98,-13.87 -30.98,-30.98 0,-17.11 13.87,-30.98 30.98,-30.98zm0 3.91c14.95,0 27.06,12.12 27.06,27.06 0,14.95 -12.12,27.06 -27.06,27.06 -14.95,0 -27.06,-12.12 -27.06,-27.06 0,-14.95 12.12,-27.06 27.06,-27.06z"/>
  <g id="_2316251153152">
   <polygon class="fil1" points="27.96,47.16 28.82,50.62 32.98,50.62 33.79,47.1 "/>
   <path class="fil1" d="M30.13 44.71l0.16 0.49 0.1 0.22 1 0.01 0.12 -0.06 0.14 -0.34c0.62,-1.59 2.24,-8.38 2.58,-10.11 0.91,-4.7 1.6,-9.49 1.27,-14.29 -0.13,-1.81 -0.47,-3.84 -1.15,-5.54 -0.52,-1.3 -1.3,-2.79 -2.67,-3.37 -1.49,-0.63 -2.92,0.9 -3.57,2.13 -3.4,6.56 -1.23,17.88 0.36,24.58l0.54 2.3c0.35,1.33 0.75,2.52 1.11,3.99l0 0z"/>
   <path class="fil1" d="M29.7 45.05l-0.59 -0.49c-7.07,-6.64 -16.76,-28.95 -1.48,-33.07 0.62,-0.17 0.49,-0.13 1.1,-0.16 -12,5.17 -3.9,25.34 0.98,33.71l0 0z"/>
   <path class="fil1" d="M32.26 45.05l0.59 -0.49c7.07,-6.64 16.76,-28.95 1.48,-33.07 -0.62,-0.17 -0.49,-0.13 -1.1,-0.16 12,5.17 3.91,25.34 -0.98,33.71l0 0z"/>
   <path class="fil1" d="M22.7 13.11c-3,1.4 -5.31,4.44 -5.81,7.73l-0.12 1.4 0.01 1.13 0.16 1.24 0.09 0.59c1.18,6.51 6.59,15.05 11.36,19.58 -6.58,-8.79 -16.52,-22.68 -5.69,-31.66l0 0z"/>
   <path class="fil1" d="M39.26 13.11c3.01,1.4 5.31,4.44 5.81,7.73l0.12 1.4 -0.02 1.13 -0.16 1.24 -0.09 0.59c-1.18,6.51 -6.6,15.05 -11.36,19.58 6.59,-8.79 16.52,-22.68 5.69,-31.66l0 0z"/>
  </g>
 </g>
</svg>
