<?xml version="1.0" encoding="UTF-8"?>
<!DOCTYPE svg PUBLIC "-//W3C//DTD SVG 1.1//EN" "http://www.w3.org/Graphics/SVG/1.1/DTD/svg11.dtd">
<!-- Creator: CorelDRAW 2019 (64 Bit) -->
<svg xmlns="http://www.w3.org/2000/svg" xml:space="preserve" width="6.7732mm" height="6.7732mm" version="1.1" style="shape-rendering:geometricPrecision; text-rendering:geometricPrecision; image-rendering:optimizeQuality; fill-rule:evenodd; clip-rule:evenodd"
viewBox="0 0 61.96 61.96"
 xmlns:xlink="http://www.w3.org/1999/xlink">
 <defs>
  <style type="text/css">
   <![CDATA[
    .fil1 {fill:#BF7200}
    .fil2 {fill:#FF9800}
    .fil3 {fill:white}
    .fil0 {fill:url(#id0)}
   ]]>
  </style>
  <radialGradient id="id0" gradientUnits="objectBoundingBox" cx="34.0002%" cy="6.99965%" r="37.9998%" fx="34.0002%" fy="6.99965%">
   <stop offset="0" style="stop-opacity:1; stop-color:#BF7200"/>
   <stop offset="0.811765" style="stop-opacity:1; stop-color:#DF8500"/>
   <stop offset="1" style="stop-opacity:1; stop-color:#FF9800"/>
  </radialGradient>
 </defs>
 <g id="Camada_x0020_1">
  <metadata id="CorelCorpID_0Corel-Layer"/>
  <path class="fil0" d="M30.98 0c17.11,0 30.98,13.87 30.98,30.98 0,17.11 -13.87,30.98 -30.98,30.98 -17.11,0 -30.98,-13.87 -30.98,-30.98 0,-17.11 13.87,-30.98 30.98,-30.98zm0 3.91c14.95,0 27.06,12.12 27.06,27.06 0,14.95 -12.12,27.06 -27.06,27.06 -14.95,0 -27.06,-12.12 -27.06,-27.06 0,-14.95 12.12,-27.06 27.06,-27.06z"/>
  <g id="_2316539148656">
   <polygon class="fil1" points="18.1,44.99 15.51,13.32 46.45,13.38 43.71,44.99 31.1,48.64 "/>
   <polygon class="fil2" points="31.1,45.58 31.1,16.33 43.84,16.38 41.57,42.54 "/>
   <polygon class="fil3" points="40.67,20.07 21.07,20.07 21.6,23.9 30.9,23.9 21.75,27.83 22.28,31.52 35.77,31.52 35.28,36.68 30.71,37.57 26.57,36.51 26.25,33.58 22.45,33.58 22.96,39.68 31.12,41.95 38.93,39.46 39.93,27.55 31.67,27.55 40.67,23.81 "/>
  </g>
 </g>
</svg>
