<?xml version="1.0" encoding="UTF-8"?>
<!DOCTYPE svg PUBLIC "-//W3C//DTD SVG 1.1//EN" "http://www.w3.org/Graphics/SVG/1.1/DTD/svg11.dtd">
<!-- Creator: CorelDRAW 2019 (64 Bit) -->
<svg xmlns="http://www.w3.org/2000/svg" xml:space="preserve" width="4.2334mm" height="4.2333mm" version="1.1" style="shape-rendering:geometricPrecision; text-rendering:geometricPrecision; image-rendering:optimizeQuality; fill-rule:evenodd; clip-rule:evenodd"
viewBox="0 0 10.18 10.18"
 xmlns:xlink="http://www.w3.org/1999/xlink">
 <defs>
  <style type="text/css">
   <![CDATA[
    .fil0 {fill:#BF7200}
    .fil1 {fill:url(#id0)}
   ]]>
  </style>
  <radialGradient id="id0" gradientUnits="userSpaceOnUse" gradientTransform="matrix(1.31577 -0 -0 1.31581 -1 0)" cx="3.46" cy="0.71" r="6.19" fx="3.46" fy="0.71">
   <stop offset="0" style="stop-opacity:1; stop-color:#BF7200"/>
   <stop offset="0.811765" style="stop-opacity:1; stop-color:#DF8500"/>
   <stop offset="1" style="stop-opacity:1; stop-color:#FF9800"/>
  </radialGradient>
 </defs>
 <g id="Camada_x0020_1">
  <metadata id="CorelCorpID_0Corel-Layer"/>
  <g id="_1854447565712">
   <path class="fil0" d="M7.49 2.93l-4.81 0c-0.43,0 -0.78,0.35 -0.78,0.78l0 2.77c0,0.43 0.35,0.78 0.78,0.78l4.81 0c0.43,0 0.78,-0.35 0.78,-0.78l0 -2.77c0,-0.43 -0.35,-0.78 -0.78,-0.78zm-0.38 0.51l-2.02 1.3 -2.02 -1.3 4.05 0zm0.38 3.31l-4.81 0c-0.15,0 -0.27,-0.12 -0.27,-0.27l0 -2.75 2.52 1.62c0,0 0.01,0 0.01,0.01 0,0 0.01,0 0.01,0.01 0.02,0.01 0.04,0.02 0.06,0.02 0,0 0,0 0.01,0 0.02,0.01 0.05,0.01 0.07,0.01 0,0 0,0 0,0 0,0 0,0 0,0 0.02,0 0.05,-0 0.07,-0.01 0,-0 0,-0 0.01,-0 0.02,-0.01 0.04,-0.01 0.06,-0.02 0,-0 0.01,-0 0.01,-0.01 0,-0 0.01,-0 0.01,-0.01l2.52 -1.62 0 2.75c-0,0.15 -0.12,0.27 -0.27,0.27z"/>
   <path class="fil1" d="M5.09 0c2.81,0 5.09,2.28 5.09,5.09 0,2.81 -2.28,5.09 -5.09,5.09 -2.81,0 -5.09,-2.28 -5.09,-5.09 0,-2.81 2.28,-5.09 5.09,-5.09zm0 0.64c2.46,0 4.45,1.99 4.45,4.45 0,2.46 -1.99,4.45 -4.45,4.45 -2.46,0 -4.45,-1.99 -4.45,-4.45 0,-2.46 1.99,-4.45 4.45,-4.45z"/>
  </g>
 </g>
</svg>
