<?xml version="1.0" encoding="UTF-8"?>
<!DOCTYPE svg PUBLIC "-//W3C//DTD SVG 1.1//EN" "http://www.w3.org/Graphics/SVG/1.1/DTD/svg11.dtd">
<!-- Creator: CorelDRAW 2019 (64 Bit) -->
<svg xmlns="http://www.w3.org/2000/svg" xml:space="preserve" width="4.2334mm" height="4.2333mm" version="1.1" style="shape-rendering:geometricPrecision; text-rendering:geometricPrecision; image-rendering:optimizeQuality; fill-rule:evenodd; clip-rule:evenodd"
viewBox="0 0 8.99 8.99"
 xmlns:xlink="http://www.w3.org/1999/xlink">
 <defs>
  <style type="text/css">
   <![CDATA[
    .fil0 {fill:#BF7200;fill-rule:nonzero}
    .fil1 {fill:url(#id0)}
   ]]>
  </style>
  <radialGradient id="id0" gradientUnits="userSpaceOnUse" gradientTransform="matrix(1.31577 -0 -0 1.31581 -1 0)" cx="3.06" cy="0.63" r="5.46" fx="3.06" fy="0.63">
   <stop offset="0" style="stop-opacity:1; stop-color:#BF7200"/>
   <stop offset="0.811765" style="stop-opacity:1; stop-color:#DF8500"/>
   <stop offset="1" style="stop-opacity:1; stop-color:#FF9800"/>
  </radialGradient>
 </defs>
 <g id="Camada_x0020_1">
  <metadata id="CorelCorpID_0Corel-Layer"/>
  <g id="_1854441258784">
   <path class="fil0" d="M5.23 1.69c0.15,0 0.3,0.01 0.45,0.01 0.1,0 0.2,0.02 0.29,0.03l-0.01 0.9c-0.03,0 -0.05,0 -0.07,0 -0.1,0 -0.2,-0 -0.3,-0 -0.07,0 -0.15,0 -0.22,0 -0.24,0.01 -0.42,0.1 -0.43,0.4 -0.01,0.22 -0.01,0.69 -0.01,0.72 0.01,0 0.25,0 0.49,0 0.12,0 0.24,0 0.32,-0 0.06,0 0.12,0 0.19,0 -0.05,0.35 -0.09,0.68 -0.14,1.02l-0.86 0 -0.02 2.54 -1.05 0 0.02 -2.54 -0.86 0 0.01 -1.01 0.86 0 0 -0.08c0,-0.2 -0,-0.41 0.01,-0.61 0,-0.13 0.01,-0.26 0.03,-0.39 0.06,-0.31 0.2,-0.57 0.46,-0.75 0.23,-0.16 0.49,-0.23 0.76,-0.24 0.03,-0 0.06,-0 0.08,-0z"/>
   <path class="fil1" d="M4.49 0c2.48,0 4.49,2.01 4.49,4.49 0,2.48 -2.01,4.49 -4.49,4.49 -2.48,0 -4.49,-2.01 -4.49,-4.49 0,-2.48 2.01,-4.49 4.49,-4.49zm0 0.57c2.17,0 3.93,1.76 3.93,3.93 0,2.17 -1.76,3.93 -3.93,3.93 -2.17,0 -3.93,-1.76 -3.93,-3.93 0,-2.17 1.76,-3.93 3.93,-3.93z"/>
  </g>
 </g>
</svg>
