<?xml version="1.0" encoding="UTF-8"?>
<!DOCTYPE svg PUBLIC "-//W3C//DTD SVG 1.1//EN" "http://www.w3.org/Graphics/SVG/1.1/DTD/svg11.dtd">
<!-- Creator: CorelDRAW 2019 (64 Bit) -->
<svg xmlns="http://www.w3.org/2000/svg" xml:space="preserve" width="6.7732mm" height="6.7732mm" version="1.1" style="shape-rendering:geometricPrecision; text-rendering:geometricPrecision; image-rendering:optimizeQuality; fill-rule:evenodd; clip-rule:evenodd"
viewBox="0 0 1191.71 1191.71"
 xmlns:xlink="http://www.w3.org/1999/xlink">
 <defs>
  <style type="text/css">
   <![CDATA[
    .fil1 {fill:#FF9800}
    .fil0 {fill:url(#id0)}
   ]]>
  </style>
  <radialGradient id="id0" gradientUnits="userSpaceOnUse" gradientTransform="matrix(1.3158 -0 -0 1.3158 -128 -26)" cx="405.19" cy="83.42" r="452.85" fx="405.19" fy="83.42">
   <stop offset="0" style="stop-opacity:1; stop-color:#BF7200"/>
   <stop offset="0.811765" style="stop-opacity:1; stop-color:#DF8500"/>
   <stop offset="1" style="stop-opacity:1; stop-color:#FF9800"/>
  </radialGradient>
 </defs>
 <g id="Camada_x0020_1">
  <metadata id="CorelCorpID_0Corel-Layer"/>
  <path class="fil0" d="M595.86 0c329.09,0 595.86,266.77 595.86,595.86 0,329.09 -266.77,595.86 -595.86,595.86 -329.09,0 -595.86,-266.77 -595.86,-595.86 0,-329.09 266.77,-595.86 595.86,-595.86zm0 75.29c287.51,0 520.57,233.06 520.57,520.57 0,287.51 -233.06,520.57 -520.57,520.57 -287.51,0 -520.57,-233.06 -520.57,-520.57 0,-287.51 233.06,-520.57 520.57,-520.57z"/>
  <path id="figma-logo-svgrepo-com.svg" class="fil1" d="M566.6 278.21l-86.37 0c-47.7,0 -86.37,38.67 -86.37,86.37 0,47.7 38.67,86.37 86.37,86.37l86.37 0 0 -172.74zm0 -58.55l58.55 0 86.35 0c80.06,0 144.93,64.89 144.93,144.93 0,47.22 -22.59,89.19 -57.57,115.65 34.98,26.44 57.57,68.41 57.57,115.63 0,80.04 -64.87,144.93 -144.93,144.93 -32.36,0 -62.25,-10.61 -86.35,-28.54l0 28.54 0 86.37c0,80.04 -64.89,144.93 -144.93,144.93 -80.04,0 -144.93,-64.89 -144.93,-144.93 0,-47.24 22.59,-89.19 57.57,-115.65 -34.98,-26.46 -57.57,-68.41 -57.57,-115.65 0,-47.22 22.59,-89.19 57.57,-115.63 -34.98,-26.46 -57.57,-68.43 -57.57,-115.65 0,-80.04 64.89,-144.93 144.93,-144.93l86.37 0zm58.55 58.55l0 172.74 86.35 0c47.72,0 86.37,-38.67 86.37,-86.37 0,-47.7 -38.66,-86.37 -86.37,-86.37l-86.35 0zm-144.93 404.02l86.37 0 0 -86.14 0 -0.23 0 -0.21 0 -86.14 -86.37 0c-47.7,0 -86.37,38.66 -86.37,86.35 0,47.59 38.48,86.2 86.02,86.37l0.35 0zm-86.37 144.93c0,-47.59 38.48,-86.18 86.02,-86.37l0.35 0 86.37 0 0 86.37c0,47.7 -38.67,86.37 -86.37,86.37 -47.7,0 -86.37,-38.67 -86.37,-86.37zm231.3 -231.46c0.09,-47.63 38.73,-86.2 86.35,-86.2 47.72,0 86.37,38.66 86.37,86.35 0,47.7 -38.66,86.37 -86.37,86.37 -47.63,0 -86.27,-38.57 -86.35,-86.2l0 -0.33z"/>
 </g>
</svg>
