<?xml version="1.0" encoding="UTF-8"?>
<!DOCTYPE svg PUBLIC "-//W3C//DTD SVG 1.1//EN" "http://www.w3.org/Graphics/SVG/1.1/DTD/svg11.dtd">
<!-- Creator: CorelDRAW 2019 (64 Bit) -->
<svg xmlns="http://www.w3.org/2000/svg" xml:space="preserve" width="4.2334mm" height="4.2333mm" version="1.1" style="shape-rendering:geometricPrecision; text-rendering:geometricPrecision; image-rendering:optimizeQuality; fill-rule:evenodd; clip-rule:evenodd"
viewBox="0 0 10.18 10.18"
 xmlns:xlink="http://www.w3.org/1999/xlink">
 <defs>
  <style type="text/css">
   <![CDATA[
    .fil0 {fill:#BF7200}
    .fil1 {fill:url(#id0)}
   ]]>
  </style>
  <radialGradient id="id0" gradientUnits="userSpaceOnUse" gradientTransform="matrix(1.31577 -0 -0 1.31581 -1 0)" cx="3.46" cy="0.71" r="6.19" fx="3.46" fy="0.71">
   <stop offset="0" style="stop-opacity:1; stop-color:#BF7200"/>
   <stop offset="0.811765" style="stop-opacity:1; stop-color:#DF8500"/>
   <stop offset="1" style="stop-opacity:1; stop-color:#FF9800"/>
  </radialGradient>
 </defs>
 <g id="Camada_x0020_1">
  <metadata id="CorelCorpID_0Corel-Layer"/>
  <g id="_1854443121088">
   <path class="fil0" d="M2.43 5.87c-0.02,-0.02 -0.02,-0.05 0,-0.07 0.05,-0.05 0.11,-0.07 0.18,-0.06 0.07,0.01 0.12,0.02 0.13,0.04 0.09,0.04 0.18,0.12 0.28,0.25 0.1,0.13 0.19,0.22 0.25,0.27 0.29,0.24 0.59,0.26 0.9,0.05 0.02,-0.09 0.06,-0.16 0.12,-0.22 0.06,-0.06 0.11,-0.1 0.16,-0.13 0.05,-0.02 0.13,-0.06 0.26,-0.11 -0.4,-0.04 -0.73,-0.11 -0.98,-0.21 -0.25,-0.1 -0.45,-0.24 -0.6,-0.39 -0.2,-0.22 -0.31,-0.51 -0.36,-0.86 -0.04,-0.35 -0.02,-0.68 0.08,-0.97 0.07,-0.18 0.18,-0.35 0.31,-0.5 -0.1,-0.31 -0.08,-0.65 0.05,-1.05 0.39,0.02 0.75,0.16 1.06,0.4 0.61,-0.16 1.25,-0.17 1.91,-0.02 0.09,-0.06 0.22,-0.14 0.39,-0.23 0.18,-0.09 0.4,-0.14 0.67,-0.16 0.05,0.13 0.08,0.29 0.1,0.48 0.02,0.18 0.01,0.35 -0.03,0.51 0.28,0.29 0.43,0.68 0.44,1.17 0,0.39 -0.07,0.72 -0.2,0.97 -0.13,0.26 -0.37,0.47 -0.72,0.64 -0.23,0.11 -0.54,0.18 -0.92,0.2 0.17,0.09 0.3,0.17 0.38,0.27 0.08,0.09 0.13,0.24 0.16,0.43l0 0.58 0.02 0.56c0.04,0.06 0.08,0.11 0.13,0.16 0.05,0.04 0.09,0.07 0.13,0.09 0.04,0.02 0.05,0.05 0.04,0.08 -0.01,0.04 -0.06,0.06 -0.15,0.06 -0.21,0 -0.37,-0.07 -0.5,-0.22 -0.04,-0.06 -0.05,-0.13 -0.05,-0.22l0 -0.88c0,-0.1 -0.02,-0.17 -0.07,-0.21 -0.05,-0.04 -0.1,-0.07 -0.15,-0.08l0 1.16c0,0.21 0.02,0.34 0.07,0.4 0.05,0.06 0.08,0.12 0.09,0.18 0.01,0.01 0,0.02 -0.03,0.03 -0.03,0.01 -0.08,-0 -0.16,-0.03 -0.16,-0.04 -0.27,-0.12 -0.33,-0.25 -0.06,-0.13 -0.09,-0.27 -0.09,-0.41l0 -1.14 -0.24 0 0 1.14c0,0.15 -0.03,0.29 -0.09,0.42 -0.09,0.17 -0.24,0.26 -0.48,0.28 -0.04,-0.01 -0.06,-0.02 -0.06,-0.04 0.01,-0.01 0.05,-0.07 0.11,-0.18 0.01,-0.02 0.03,-0.07 0.05,-0.15 0.02,-0.07 0.03,-0.16 0.03,-0.26l0 -1.15c-0.05,0.01 -0.09,0.04 -0.14,0.08 -0.04,0.04 -0.06,0.11 -0.06,0.21l0 0.88c0,0.09 -0.02,0.16 -0.06,0.22 -0.11,0.15 -0.28,0.22 -0.5,0.22 -0.09,0 -0.13,-0.02 -0.15,-0.06 -0.01,-0.02 -0.01,-0.05 0.01,-0.06 0.02,-0.02 0.05,-0.04 0.08,-0.06 0.04,-0.02 0.06,-0.04 0.07,-0.06 0.05,-0.04 0.09,-0.09 0.11,-0.15 0.04,-0.05 0.05,-0.18 0.03,-0.38 -0.02,-0.21 -0.02,-0.34 -0.01,-0.4 -0.32,0.11 -0.64,0.05 -0.97,-0.17 -0.1,-0.1 -0.2,-0.24 -0.29,-0.42 -0.07,-0.13 -0.22,-0.29 -0.44,-0.48l0 0z"/>
   <path class="fil1" d="M5.09 0c2.81,0 5.09,2.28 5.09,5.09 0,2.81 -2.28,5.09 -5.09,5.09 -2.81,0 -5.09,-2.28 -5.09,-5.09 0,-2.81 2.28,-5.09 5.09,-5.09zm0 0.64c2.46,0 4.45,1.99 4.45,4.45 0,2.46 -1.99,4.45 -4.45,4.45 -2.46,0 -4.45,-1.99 -4.45,-4.45 0,-2.46 1.99,-4.45 4.45,-4.45z"/>
  </g>
 </g>
</svg>
