<?xml version="1.0" encoding="UTF-8"?>
<!DOCTYPE svg PUBLIC "-//W3C//DTD SVG 1.1//EN" "http://www.w3.org/Graphics/SVG/1.1/DTD/svg11.dtd">
<!-- Creator: CorelDRAW 2019 (64 Bit) -->
<svg xmlns="http://www.w3.org/2000/svg" xml:space="preserve" width="6.7732mm" height="6.7732mm" version="1.1" style="shape-rendering:geometricPrecision; text-rendering:geometricPrecision; image-rendering:optimizeQuality; fill-rule:evenodd; clip-rule:evenodd"
viewBox="0 0 1191.71 1191.71"
 xmlns:xlink="http://www.w3.org/1999/xlink">
 <defs>
  <style type="text/css">
   <![CDATA[
    .fil1 {fill:#FF9800}
    .fil0 {fill:url(#id0)}
   ]]>
  </style>
  <radialGradient id="id0" gradientUnits="objectBoundingBox" cx="34.0002%" cy="6.99965%" r="37.9998%" fx="34.0002%" fy="6.99965%">
   <stop offset="0" style="stop-opacity:1; stop-color:#BF7200"/>
   <stop offset="0.811765" style="stop-opacity:1; stop-color:#DF8500"/>
   <stop offset="1" style="stop-opacity:1; stop-color:#FF9800"/>
  </radialGradient>
 </defs>
 <g id="Camada_x0020_1">
  <metadata id="CorelCorpID_0Corel-Layer"/>
  <path class="fil0" d="M595.86 0c329.09,0 595.86,266.77 595.86,595.86 0,329.09 -266.77,595.86 -595.86,595.86 -329.09,0 -595.86,-266.77 -595.86,-595.86 0,-329.09 266.77,-595.86 595.86,-595.86zm0 75.29c287.51,0 520.57,233.06 520.57,520.57 0,287.51 -233.06,520.57 -520.57,520.57 -287.51,0 -520.57,-233.06 -520.57,-520.57 0,-287.51 233.06,-520.57 520.57,-520.57z"/>
  <path class="fil1" d="M318.51 326.06l554.7 0 0 539.57 -554.7 0 0 -539.57zm-25.21 564.79l605.13 0 0 -590 -605.13 0 0 590 0 0zm396.35 -379.71c0,-2.02 0.76,-3.03 3.03,-3.03l39.59 0c2.02,0 3.03,0.76 3.03,3.03l0 198.92c0,2.02 -0.49,3.03 -3.03,3.03l-39.08 0c-2.52,0 -3.27,-1.25 -3.27,-3.27l0 -198.68 -0.26 0zm-2.76 -57.24c0,-16.15 11.35,-25.72 25.72,-25.72 15.38,0 25.71,10.33 25.71,25.72 0,16.63 -10.84,25.71 -26.22,25.71 -14.62,0 -25.21,-9.08 -25.21,-25.71zm-113.47 140.18c-7.06,-27.98 -23.7,-88.99 -30,-118.5l-0.51 0c-5.3,29.51 -18.65,79.42 -29.24,118.5l59.75 0zm-70.1 40.85l-19.92 75.64c-0.51,2.02 -1.27,2.52 -3.78,2.52l-37.05 0c-2.53,0 -3.03,-0.76 -2.53,-3.78l71.61 -250.62c1.27,-4.54 2.02,-8.57 2.52,-20.94 0,-1.76 0.76,-2.52 2.02,-2.52l52.94 0c1.78,0 2.53,0.51 3.03,2.52l80.18 272.06c0.51,2.02 0,3.27 -2.01,3.27l-41.86 0c-2.02,0 -3.27,-0.49 -3.78,-2.27l-20.67 -75.89 -80.69 0z"/>
 </g>
</svg>
