<?xml version="1.0" encoding="UTF-8"?>
<!DOCTYPE svg PUBLIC "-//W3C//DTD SVG 1.1//EN" "http://www.w3.org/Graphics/SVG/1.1/DTD/svg11.dtd">
<!-- Creator: CorelDRAW 2019 (64 Bit) -->
<svg xmlns="http://www.w3.org/2000/svg" xml:space="preserve" width="4.2334mm" height="4.2333mm" version="1.1" style="shape-rendering:geometricPrecision; text-rendering:geometricPrecision; image-rendering:optimizeQuality; fill-rule:evenodd; clip-rule:evenodd"
viewBox="0 0 8.99 8.99"
 xmlns:xlink="http://www.w3.org/1999/xlink">
 <defs>
  <style type="text/css">
   <![CDATA[
    .fil0 {fill:#BF7200;fill-rule:nonzero}
    .fil1 {fill:url(#id0)}
   ]]>
  </style>
  <radialGradient id="id0" gradientUnits="userSpaceOnUse" gradientTransform="matrix(1.31577 -0 -0 1.31581 -1 0)" cx="3.06" cy="0.63" r="5.46" fx="3.06" fy="0.63">
   <stop offset="0" style="stop-opacity:1; stop-color:#BF7200"/>
   <stop offset="0.811765" style="stop-opacity:1; stop-color:#DF8500"/>
   <stop offset="1" style="stop-opacity:1; stop-color:#FF9800"/>
  </radialGradient>
 </defs>
 <g id="Camada_x0020_1">
  <metadata id="CorelCorpID_0Corel-Layer"/>
  <g id="_1854450429840">
   <path class="fil0" d="M6 2.66l0 0c0.19,0 0.34,0.15 0.33,0.34 -0,0.19 -0.15,0.34 -0.34,0.34 -0.19,-0 -0.33,-0.15 -0.33,-0.34 0,-0.19 0.15,-0.34 0.34,-0.34z"/>
   <path class="fil0" d="M6.73 5.9c0.08,-0.49 0.08,-2.3 0.03,-2.76 -0.05,-0.49 -0.35,-0.82 -0.84,-0.9 -0.24,-0.04 -0.82,-0.05 -1.4,-0.05 -0.56,0 -1.12,0.01 -1.36,0.04 -0.49,0.06 -0.82,0.36 -0.9,0.85 -0.08,0.52 -0.08,2.45 -0.02,2.83 0.06,0.4 0.29,0.68 0.69,0.79 0.22,0.06 0.87,0.08 1.51,0.08 0.59,0 1.17,-0.02 1.39,-0.04 0.49,-0.05 0.82,-0.36 0.9,-0.85zm0.54 -2.81c0.04,0.44 0.07,2.53 -0.06,3.02 -0.17,0.64 -0.59,1.02 -1.24,1.12 -0.24,0.04 -0.9,0.06 -1.55,0.06 -0.67,0 -1.34,-0.02 -1.56,-0.08 -0.64,-0.16 -1.02,-0.58 -1.12,-1.22 -0.08,-0.47 -0.08,-2.67 0.05,-3.15 0.18,-0.62 0.59,-0.99 1.22,-1.09 0.29,-0.05 0.84,-0.06 1.41,-0.06 0.52,0 1.05,0.01 1.37,0.03 0.39,0.02 0.74,0.14 1.03,0.42 0.27,0.26 0.41,0.59 0.45,0.96z"/>
   <path class="fil0" d="M4.49 5.43c0.51,0 0.93,-0.41 0.94,-0.92 0.01,-0.52 -0.4,-0.94 -0.92,-0.94l-0.01 0c-0.51,0 -0.93,0.41 -0.94,0.92 -0.01,0.51 0.4,0.94 0.92,0.94l0.01 0zm0.02 -2.37c0.79,0 1.43,0.65 1.43,1.44 -0.01,0.79 -0.66,1.44 -1.45,1.44 -0.8,0 -1.43,-0.64 -1.43,-1.44 0.01,-0.8 0.66,-1.44 1.45,-1.44z"/>
   <path class="fil1" d="M4.49 0c2.48,0 4.49,2.01 4.49,4.49 0,2.48 -2.01,4.49 -4.49,4.49 -2.48,0 -4.49,-2.01 -4.49,-4.49 0,-2.48 2.01,-4.49 4.49,-4.49zm0 0.57c2.17,0 3.93,1.76 3.93,3.93 0,2.17 -1.76,3.93 -3.93,3.93 -2.17,0 -3.93,-1.76 -3.93,-3.93 0,-2.17 1.76,-3.93 3.93,-3.93z"/>
  </g>
 </g>
</svg>
