<?xml version="1.0" encoding="UTF-8"?>
<!DOCTYPE svg PUBLIC "-//W3C//DTD SVG 1.1//EN" "http://www.w3.org/Graphics/SVG/1.1/DTD/svg11.dtd">
<!-- Creator: CorelDRAW 2019 (64 Bit) -->
<svg xmlns="http://www.w3.org/2000/svg" xml:space="preserve" width="6.7732mm" height="6.7732mm" version="1.1" style="shape-rendering:geometricPrecision; text-rendering:geometricPrecision; image-rendering:optimizeQuality; fill-rule:evenodd; clip-rule:evenodd"
viewBox="0 0 1191.71 1191.71"
 xmlns:xlink="http://www.w3.org/1999/xlink">
 <defs>
  <style type="text/css">
   <![CDATA[
    .fil1 {fill:#FF9800}
    .fil0 {fill:url(#id0)}
   ]]>
  </style>
  <radialGradient id="id0" gradientUnits="objectBoundingBox" cx="34.0002%" cy="6.99965%" r="37.9998%" fx="34.0002%" fy="6.99965%">
   <stop offset="0" style="stop-opacity:1; stop-color:#BF7200"/>
   <stop offset="0.811765" style="stop-opacity:1; stop-color:#DF8500"/>
   <stop offset="1" style="stop-opacity:1; stop-color:#FF9800"/>
  </radialGradient>
 </defs>
 <g id="Camada_x0020_1">
  <metadata id="CorelCorpID_0Corel-Layer"/>
  <path class="fil0" d="M595.86 0c329.09,0 595.86,266.77 595.86,595.86 0,329.09 -266.77,595.86 -595.86,595.86 -329.09,0 -595.86,-266.77 -595.86,-595.86 0,-329.09 266.77,-595.86 595.86,-595.86zm0 75.29c287.51,0 520.57,233.06 520.57,520.57 0,287.51 -233.06,520.57 -520.57,520.57 -287.51,0 -520.57,-233.06 -520.57,-520.57 0,-287.51 233.06,-520.57 520.57,-520.57z"/>
  <g id="_2316536623360">
   <path class="fil1" d="M514.18 623.16c0,0 -23.49,13.67 16.73,18.28 48.75,5.58 73.65,4.77 127.35,-5.38 0,0 14.15,8.85 33.87,16.5 -120.42,51.6 -272.52,-2.99 -177.95,-29.4zm-14.73 -67.33c0,0 -26.36,19.49 13.92,23.66 52.06,5.38 93.18,5.82 164.35,-7.88 0,0 9.82,9.98 25.28,15.43 -145.58,42.58 -307.71,3.34 -203.55,-31.21z"/>
   <path class="fil1" d="M623.5 441.59c29.68,34.17 -7.78,64.91 -7.78,64.91 0,0 75.34,-38.88 40.73,-87.6 -32.3,-45.41 -57.09,-67.97 77.06,-145.75 -0.02,0 -210.59,52.57 -110.02,168.45z"/>
   <path class="fil1" d="M782.76 672.97c0,0 17.38,14.34 -19.16,25.42 -69.48,21.04 -289.27,27.39 -350.33,0.83 -21.92,-9.54 19.21,-22.78 32.16,-25.58 13.5,-2.92 21.2,-2.39 21.2,-2.39 -24.4,-17.17 -157.74,33.76 -67.72,48.37 245.5,39.8 447.5,-17.91 383.84,-46.64zm-257.29 -186.92c0,0 -111.78,26.55 -39.57,36.21 30.49,4.08 91.25,3.13 147.86,-1.62 46.27,-3.87 92.72,-12.18 92.72,-12.18 0,0 -16.31,6.99 -28.12,15.04 -113.54,29.86 -332.84,15.96 -269.69,-14.57 53.38,-25.83 96.79,-22.89 96.79,-22.89l0 0zm200.54 112.08c115.4,-59.94 62.06,-117.57 24.79,-109.81 -9.1,1.9 -13.2,3.55 -13.2,3.55 0,0 3.41,-5.33 9.87,-7.62 73.69,-25.88 130.34,76.4 -23.77,116.92 0,0 1.78,-1.6 2.3,-3.04l0 0z"/>
   <path class="fil1" d="M656.45 147.5c0,0 63.9,63.94 -60.61,162.22 -99.87,78.88 -22.77,123.83 -0.04,175.21 -58.31,-52.59 -101.06,-98.88 -72.38,-141.97 42.12,-63.25 158.81,-93.92 133.03,-195.46l0 0z"/>
   <path class="fil1" d="M536.83 760.65c110.76,7.07 280.86,-3.94 284.91,-56.36 0,0 -7.76,19.86 -91.54,35.63 -94.55,17.81 -211.17,15.73 -280.32,4.31 0,0 14.16,11.74 86.95,16.42l0 0z"/>
   <path class="fil1" d="M816.62 854.64l-3.38 0 0 -1.88 9.1 0 0 1.88 -3.36 0 0 9.43 -2.36 0 0 -9.43 0 0zm18.12 0.48l-0.04 0 -3.34 8.96 -1.53 0 -3.33 -8.96 -0.05 0 0 8.96 -2.23 0 0 -11.31 3.29 0 3.08 8.01 3.08 -8.01 3.25 0 0 11.31 -2.16 0 0 -8.96 -0.02 0zm-316.05 105.78c-10.45,9.06 -21.48,14.15 -31.41,14.15 -14.11,0 -21.78,-8.48 -21.78,-22.06 0,-14.69 8.2,-25.46 41.05,-25.46l12.14 0 0 33.38 0 0zm28.82 32.53l0 -100.68c0,-25.74 -14.67,-42.72 -50.04,-42.72 -20.64,0 -38.74,5.1 -53.45,11.59l4.24 17.82c11.59,-4.24 26.57,-8.2 41.28,-8.2 20.37,0 29.15,8.2 29.15,25.18l0 12.74 -10.19 0c-49.51,0 -71.84,19.2 -71.84,48.07 0,24.88 14.71,39.02 42.42,39.02 17.82,0 31.12,-7.35 43.55,-18.1l2.25 15.27 22.63 0zm96.22 0l-35.95 0 -43.28 -140.83 31.39 0 26.87 86.53 5.98 26c13.55,-37.62 23.17,-75.8 27.98,-112.53l30.54 0c-8.18,46.36 -22.91,97.28 -43.53,140.83zm137.96 -32.53c-10.49,9.06 -21.52,14.15 -31.42,14.15 -14.11,0 -21.76,-8.48 -21.76,-22.06 0,-14.69 8.2,-25.46 41.01,-25.46l12.18 0 0 33.38zm28.84 32.53l0 -100.68c0,-25.74 -14.73,-42.72 -50.07,-42.72 -20.66,0 -38.74,5.1 -53.45,11.59l4.24 17.82c11.58,-4.24 26.6,-8.2 41.31,-8.2 20.34,0 29.12,8.2 29.12,25.18l0 12.74 -10.19 0c-49.49,0 -71.82,19.2 -71.82,48.07 0,24.88 14.69,39.02 42.4,39.02 17.82,0 31.11,-7.35 43.56,-18.1l2.27 15.27 22.63 0zm-405.48 23.93c-8.22,12 -21.5,21.5 -36.03,26.87l-14.23 -16.77c11.07,-5.67 20.55,-14.85 24.97,-23.37 3.8,-7.62 5.38,-17.38 5.38,-40.78l0 -160.8 30.65 0 0 158.58c0,31.3 -2.5,43.95 -10.73,56.27z"/>
  </g>
 </g>
</svg>
