<?xml version="1.0" encoding="UTF-8"?>
<!DOCTYPE svg PUBLIC "-//W3C//DTD SVG 1.1//EN" "http://www.w3.org/Graphics/SVG/1.1/DTD/svg11.dtd">
<!-- Creator: CorelDRAW 2019 (64 Bit) -->
<svg xmlns="http://www.w3.org/2000/svg" xml:space="preserve" width="6.7732mm" height="6.7732mm" version="1.1" style="shape-rendering:geometricPrecision; text-rendering:geometricPrecision; image-rendering:optimizeQuality; fill-rule:evenodd; clip-rule:evenodd"
viewBox="0 0 1191.71 1191.71"
 xmlns:xlink="http://www.w3.org/1999/xlink">
 <defs>
  <style type="text/css">
   <![CDATA[
    .fil2 {fill:black}
    .fil1 {fill:#FF9800}
    .fil0 {fill:url(#id0)}
   ]]>
  </style>
  <radialGradient id="id0" gradientUnits="objectBoundingBox" cx="34.0002%" cy="6.99965%" r="37.9998%" fx="34.0002%" fy="6.99965%">
   <stop offset="0" style="stop-opacity:1; stop-color:#BF7200"/>
   <stop offset="0.811765" style="stop-opacity:1; stop-color:#DF8500"/>
   <stop offset="1" style="stop-opacity:1; stop-color:#FF9800"/>
  </radialGradient>
 </defs>
 <g id="Camada_x0020_1">
  <metadata id="CorelCorpID_0Corel-Layer"/>
  <path class="fil0" d="M595.86 0c329.09,0 595.86,266.77 595.86,595.86 0,329.09 -266.77,595.86 -595.86,595.86 -329.09,0 -595.86,-266.77 -595.86,-595.86 0,-329.09 266.77,-595.86 595.86,-595.86zm0 75.29c287.51,0 520.57,233.06 520.57,520.57 0,287.51 -233.06,520.57 -520.57,520.57 -287.51,0 -520.57,-233.06 -520.57,-520.57 0,-287.51 233.06,-520.57 520.57,-520.57z"/>
  <g id="_2316247057968">
   <g>
    <polygon class="fil1" points="291.88,266.49 896.9,266.49 896.9,871.51 291.88,871.51 "/>
    <g>
     <path class="fil2" d="M450.95 772.1l46.31 -28.03c8.94,15.84 17.05,29.24 36.54,29.24 18.69,0 30.47,-7.32 30.47,-35.73l0 -193.33 56.85 0 0 194.12c0,58.89 -34.52,85.7 -84.88,85.7 -45.48,0 -71.89,-23.56 -85.3,-51.99l0 0.02zm0 0l0 0 0 0z"/>
    </g>
    <g>
     <path class="fil2" d="M652 766l46.31 -26.8c12.18,19.9 28.01,34.52 56.04,34.52 23.56,0 38.58,-11.79 38.58,-28.03 0,-19.49 -15.43,-26.39 -41.44,-37.76l-14.2 -6.11c-41.03,-17.45 -68.23,-39.39 -68.23,-85.69 0,-42.65 32.48,-75.15 83.26,-75.15 36.14,0 62.13,12.6 80.81,45.5l-44.27 28.42c-9.75,-17.45 -20.3,-24.35 -36.54,-24.35 -16.66,0 -27.22,10.56 -27.22,24.35 0,17.07 10.56,23.96 34.93,34.54l14.22 6.09c48.33,20.71 75.55,41.82 75.55,89.35 0,51.18 -40.22,79.19 -94.24,79.19 -52.78,0 -86.9,-25.18 -103.56,-58.08l0 0zm0 0l0 0 0 0z"/>
    </g>
   </g>
  </g>
 </g>
</svg>
