<?xml version="1.0" encoding="UTF-8"?>
<!DOCTYPE svg PUBLIC "-//W3C//DTD SVG 1.1//EN" "http://www.w3.org/Graphics/SVG/1.1/DTD/svg11.dtd">
<!-- Creator: CorelDRAW 2019 (64 Bit) -->
<svg xmlns="http://www.w3.org/2000/svg" xml:space="preserve" width="6.7732mm" height="6.7732mm" version="1.1" style="shape-rendering:geometricPrecision; text-rendering:geometricPrecision; image-rendering:optimizeQuality; fill-rule:evenodd; clip-rule:evenodd"
viewBox="0 0 61.96 61.96"
 xmlns:xlink="http://www.w3.org/1999/xlink">
 <defs>
  <style type="text/css">
   <![CDATA[
    .fil1 {fill:#FF9800}
    .fil0 {fill:url(#id0)}
   ]]>
  </style>
  <radialGradient id="id0" gradientUnits="objectBoundingBox" cx="34.0002%" cy="6.99965%" r="37.9998%" fx="34.0002%" fy="6.99965%">
   <stop offset="0" style="stop-opacity:1; stop-color:#BF7200"/>
   <stop offset="0.811765" style="stop-opacity:1; stop-color:#DF8500"/>
   <stop offset="1" style="stop-opacity:1; stop-color:#FF9800"/>
  </radialGradient>
 </defs>
 <g id="Camada_x0020_1">
  <metadata id="CorelCorpID_0Corel-Layer"/>
  <path class="fil0" d="M30.98 0c17.11,0 30.98,13.87 30.98,30.98 0,17.11 -13.87,30.98 -30.98,30.98 -17.11,0 -30.98,-13.87 -30.98,-30.98 0,-17.11 13.87,-30.98 30.98,-30.98zm0 3.91c14.95,0 27.06,12.12 27.06,27.06 0,14.95 -12.12,27.06 -27.06,27.06 -14.95,0 -27.06,-12.12 -27.06,-27.06 0,-14.95 12.12,-27.06 27.06,-27.06z"/>
  <g id="_2316251156064">
   <path class="fil1" d="M26.73 32.4c0,0 -1.22,0.71 0.87,0.95 2.53,0.29 3.83,0.25 6.62,-0.28 0,0 0.74,0.46 1.76,0.86 -6.26,2.68 -14.17,-0.16 -9.25,-1.53zm-0.77 -3.5c0,0 -1.37,1.01 0.72,1.23 2.71,0.28 4.84,0.3 8.54,-0.41 0,0 0.51,0.52 1.31,0.8 -7.57,2.21 -16,0.17 -10.58,-1.62z"/>
   <path class="fil1" d="M32.42 22.96c1.54,1.78 -0.4,3.37 -0.4,3.37 0,0 3.92,-2.02 2.12,-4.55 -1.68,-2.36 -2.97,-3.53 4.01,-7.58 -0,0 -10.95,2.73 -5.72,8.76z"/>
   <path class="fil1" d="M40.7 34.99c0,0 0.9,0.75 -1,1.32 -3.61,1.09 -15.04,1.42 -18.21,0.04 -1.14,-0.5 1,-1.18 1.67,-1.33 0.7,-0.15 1.1,-0.12 1.1,-0.12 -1.27,-0.89 -8.2,1.76 -3.52,2.51 12.76,2.07 23.27,-0.93 19.96,-2.43zm-13.38 -9.72c0,0 -5.81,1.38 -2.06,1.88 1.59,0.21 4.74,0.16 7.69,-0.08 2.41,-0.2 4.82,-0.63 4.82,-0.63 0,0 -0.85,0.36 -1.46,0.78 -5.9,1.55 -17.3,0.83 -14.02,-0.76 2.78,-1.34 5.03,-1.19 5.03,-1.19l0 0zm10.43 5.83c6,-3.12 3.23,-6.11 1.29,-5.71 -0.47,0.1 -0.69,0.18 -0.69,0.18 0,0 0.18,-0.28 0.51,-0.4 3.83,-1.35 6.78,3.97 -1.24,6.08 0,0 0.09,-0.08 0.12,-0.16l0 0z"/>
   <path class="fil1" d="M34.13 7.67c0,0 3.32,3.32 -3.15,8.43 -5.19,4.1 -1.18,6.44 -0,9.11 -3.03,-2.73 -5.25,-5.14 -3.76,-7.38 2.19,-3.29 8.26,-4.88 6.92,-10.16l0 0z"/>
   <path class="fil1" d="M27.91 39.55c5.76,0.37 14.6,-0.2 14.81,-2.93 0,0 -0.4,1.03 -4.76,1.85 -4.92,0.93 -10.98,0.82 -14.57,0.22 0,0 0.74,0.61 4.52,0.85l0 0z"/>
   <path class="fil1" d="M42.46 44.43l-0.18 0 0 -0.1 0.47 0 0 0.1 -0.17 0 0 0.49 -0.12 0 0 -0.49 0 0zm0.94 0.02l-0 0 -0.17 0.47 -0.08 0 -0.17 -0.47 -0 0 0 0.47 -0.12 0 0 -0.59 0.17 0 0.16 0.42 0.16 -0.42 0.17 0 0 0.59 -0.11 0 0 -0.47 -0 0zm-16.43 5.5c-0.54,0.47 -1.12,0.74 -1.63,0.74 -0.73,0 -1.13,-0.44 -1.13,-1.15 0,-0.76 0.43,-1.32 2.13,-1.32l0.63 0 0 1.74 0 0zm1.5 1.69l0 -5.23c0,-1.34 -0.76,-2.22 -2.6,-2.22 -1.07,0 -2.01,0.27 -2.78,0.6l0.22 0.93c0.6,-0.22 1.38,-0.43 2.15,-0.43 1.06,0 1.52,0.43 1.52,1.31l0 0.66 -0.53 0c-2.57,0 -3.73,1 -3.73,2.5 0,1.29 0.76,2.03 2.21,2.03 0.93,0 1.62,-0.38 2.26,-0.94l0.12 0.79 1.18 0zm5 0l-1.87 0 -2.25 -7.32 1.63 0 1.4 4.5 0.31 1.35c0.7,-1.96 1.2,-3.94 1.45,-5.85l1.59 0c-0.43,2.41 -1.19,5.06 -2.26,7.32zm7.17 -1.69c-0.55,0.47 -1.12,0.74 -1.63,0.74 -0.73,0 -1.13,-0.44 -1.13,-1.15 0,-0.76 0.43,-1.32 2.13,-1.32l0.63 0 0 1.74zm1.5 1.69l0 -5.23c0,-1.34 -0.77,-2.22 -2.6,-2.22 -1.07,0 -2.01,0.27 -2.78,0.6l0.22 0.93c0.6,-0.22 1.38,-0.43 2.15,-0.43 1.06,0 1.51,0.43 1.51,1.31l0 0.66 -0.53 0c-2.57,0 -3.73,1 -3.73,2.5 0,1.29 0.76,2.03 2.2,2.03 0.93,0 1.62,-0.38 2.26,-0.94l0.12 0.79 1.18 0zm-21.08 1.24c-0.43,0.62 -1.12,1.12 -1.87,1.4l-0.74 -0.87c0.58,-0.29 1.07,-0.77 1.3,-1.21 0.2,-0.4 0.28,-0.9 0.28,-2.12l0 -8.36 1.59 0 0 8.24c0,1.63 -0.13,2.29 -0.56,2.93z"/>
  </g>
 </g>
</svg>
