<?xml version="1.0" encoding="UTF-8"?>
<!DOCTYPE svg PUBLIC "-//W3C//DTD SVG 1.1//EN" "http://www.w3.org/Graphics/SVG/1.1/DTD/svg11.dtd">
<!-- Creator: CorelDRAW 2019 (64 Bit) -->
<svg xmlns="http://www.w3.org/2000/svg" xml:space="preserve" width="4.2334mm" height="4.2333mm" version="1.1" style="shape-rendering:geometricPrecision; text-rendering:geometricPrecision; image-rendering:optimizeQuality; fill-rule:evenodd; clip-rule:evenodd"
viewBox="0 0 10.18 10.18"
 xmlns:xlink="http://www.w3.org/1999/xlink">
 <defs>
  <style type="text/css">
   <![CDATA[
    .fil0 {fill:#BF7200;fill-rule:nonzero}
    .fil1 {fill:url(#id0)}
   ]]>
  </style>
  <radialGradient id="id0" gradientUnits="userSpaceOnUse" gradientTransform="matrix(1.31577 -0 -0 1.31581 -1 0)" cx="3.46" cy="0.71" r="6.19" fx="3.46" fy="0.71">
   <stop offset="0" style="stop-opacity:1; stop-color:#BF7200"/>
   <stop offset="0.811765" style="stop-opacity:1; stop-color:#DF8500"/>
   <stop offset="1" style="stop-opacity:1; stop-color:#FF9800"/>
  </radialGradient>
 </defs>
 <g id="Camada_x0020_1">
  <metadata id="CorelCorpID_0Corel-Layer"/>
  <g id="_1854449370576">
   <g>
    <path class="fil0" d="M3.17 2.54c0.34,0 0.61,0.28 0.61,0.61 -0,0.34 -0.28,0.61 -0.62,0.61 -0.34,0 -0.61,-0.28 -0.61,-0.61 0,-0.34 0.28,-0.61 0.62,-0.61z"/>
    <polygon class="fil0" points="3.68,4.23 3.66,7.63 2.6,7.63 2.63,4.23 "/>
    <path class="fil0" d="M6.37 4.15c1.07,0 1.26,0.7 1.26,1.62l-0.01 1.87 -1.06 0 0.01 -1.65c0,-0.4 -0,-0.9 -0.54,-0.9 -0.55,0 -0.64,0.43 -0.64,0.87l-0.01 1.68 -1.06 0 0.03 -3.4 1.01 0 -0 0.47 0.02 0c0.14,-0.27 0.49,-0.55 1,-0.55z"/>
   </g>
   <path class="fil1" d="M5.09 0c2.81,0 5.09,2.28 5.09,5.09 0,2.81 -2.28,5.09 -5.09,5.09 -2.81,0 -5.09,-2.28 -5.09,-5.09 0,-2.81 2.28,-5.09 5.09,-5.09zm0 0.64c2.46,0 4.45,1.99 4.45,4.45 0,2.46 -1.99,4.45 -4.45,4.45 -2.46,0 -4.45,-1.99 -4.45,-4.45 0,-2.46 1.99,-4.45 4.45,-4.45z"/>
  </g>
 </g>
</svg>
