<?xml version="1.0" encoding="UTF-8"?>
<!DOCTYPE svg PUBLIC "-//W3C//DTD SVG 1.1//EN" "http://www.w3.org/Graphics/SVG/1.1/DTD/svg11.dtd">
<!-- Creator: CorelDRAW 2019 (64 Bit) -->
<svg xmlns="http://www.w3.org/2000/svg" xml:space="preserve" width="6.7732mm" height="6.7732mm" version="1.1" style="shape-rendering:geometricPrecision; text-rendering:geometricPrecision; image-rendering:optimizeQuality; fill-rule:evenodd; clip-rule:evenodd"
viewBox="0 0 1191.71 1191.71"
 xmlns:xlink="http://www.w3.org/1999/xlink">
 <defs>
  <style type="text/css">
   <![CDATA[
    .fil1 {fill:#FF9800}
    .fil0 {fill:url(#id0)}
   ]]>
  </style>
  <radialGradient id="id0" gradientUnits="objectBoundingBox" cx="34.0002%" cy="6.99965%" r="37.9998%" fx="34.0002%" fy="6.99965%">
   <stop offset="0" style="stop-opacity:1; stop-color:#BF7200"/>
   <stop offset="0.811765" style="stop-opacity:1; stop-color:#DF8500"/>
   <stop offset="1" style="stop-opacity:1; stop-color:#FF9800"/>
  </radialGradient>
 </defs>
 <g id="Camada_x0020_1">
  <metadata id="CorelCorpID_0Corel-Layer"/>
  <path class="fil0" d="M595.86 0c329.09,0 595.86,266.77 595.86,595.86 0,329.09 -266.77,595.86 -595.86,595.86 -329.09,0 -595.86,-266.77 -595.86,-595.86 0,-329.09 266.77,-595.86 595.86,-595.86zm0 75.29c287.51,0 520.57,233.06 520.57,520.57 0,287.51 -233.06,520.57 -520.57,520.57 -287.51,0 -520.57,-233.06 -520.57,-520.57 0,-287.51 233.06,-520.57 520.57,-520.57z"/>
  <path class="fil1" d="M595.86 994.55c-10.98,0 -21.24,-2.94 -30.76,-8.06l-97.44 -57.87c-14.66,-8.06 -7.32,-11 -2.92,-12.46 19.78,-6.6 23.44,-8.06 43.95,-19.78 2.2,-1.46 5.12,-0.74 7.32,0.74l74.72 44.67c2.92,1.48 6.58,1.48 8.78,0l292.3 -169.21c2.92,-1.48 4.38,-4.4 4.38,-8.06l0 -337.71c0,-3.66 -1.46,-6.6 -4.38,-8.06l-292.3 -168.49c-2.92,-1.46 -6.58,-1.46 -8.78,0l-292.28 168.49c-2.94,1.46 -4.4,5.14 -4.4,8.06l0 337.71c0,2.92 1.46,6.58 4.4,8.06l79.84 46.15c43.21,21.98 70.33,-3.68 70.33,-29.31l0 -333.29c0,-4.4 3.66,-8.8 8.78,-8.8l37.37 0c4.38,0 8.78,3.66 8.78,8.8l0 333.29c0,57.87 -31.49,91.58 -86.44,91.58 -16.84,0 -30.03,0 -67.39,-18.32l-76.92 -43.95c-19.04,-11 -30.76,-31.51 -30.76,-53.49l0 -337.69c0,-21.98 11.72,-42.49 30.76,-53.49l292.3 -169.21c18.3,-10.26 43.21,-10.26 61.53,0l292.28 169.21c19.05,11 30.77,31.51 30.77,53.49l0 337.69c0,21.98 -11.72,42.49 -30.77,53.49l-292.28 169.21c-9.52,4.4 -20.52,6.6 -30.77,6.6zm90.1 -232.21c-128.19,0 -154.57,-58.61 -154.57,-108.42 0,-4.4 3.66,-8.8 8.8,-8.8l38.09 0c4.4,0 8.06,2.94 8.06,7.34 5.86,38.81 22.71,57.87 100.36,57.87 61.53,0 87.9,-13.92 87.9,-46.89 0,-19.04 -7.32,-32.95 -103.28,-42.49 -79.86,-8.06 -129.67,-25.64 -129.67,-89.36 0,-59.33 49.81,-94.5 133.33,-94.5 93.76,0 139.91,32.23 145.77,102.56 0,2.2 -0.74,4.4 -2.2,6.6 -1.46,1.46 -3.66,2.92 -5.86,2.92l-38.09 0c-3.66,0 -7.32,-2.92 -8.06,-6.6 -8.8,-40.29 -31.49,-53.47 -91.56,-53.47 -67.4,0 -75.46,23.44 -75.46,41.03 0,21.24 9.54,27.83 100.36,39.55 90.1,11.72 132.59,28.57 132.59,91.56 -0.72,64.47 -53.47,101.1 -146.51,101.1z"/>
 </g>
</svg>
