<?xml version="1.0" encoding="UTF-8"?>
<!DOCTYPE svg PUBLIC "-//W3C//DTD SVG 1.1//EN" "http://www.w3.org/Graphics/SVG/1.1/DTD/svg11.dtd">
<!-- Creator: CorelDRAW 2019 (64 Bit) -->
<svg xmlns="http://www.w3.org/2000/svg" xml:space="preserve" width="6.7732mm" height="6.7732mm" version="1.1" style="shape-rendering:geometricPrecision; text-rendering:geometricPrecision; image-rendering:optimizeQuality; fill-rule:evenodd; clip-rule:evenodd"
viewBox="0 0 61.96 61.96"
 xmlns:xlink="http://www.w3.org/1999/xlink">
 <defs>
  <style type="text/css">
   <![CDATA[
    .fil1 {fill:#FF9800}
    .fil0 {fill:url(#id0)}
   ]]>
  </style>
  <radialGradient id="id0" gradientUnits="userSpaceOnUse" gradientTransform="matrix(1.3158 -0 -0 1.3158 -7 -1)" cx="21.07" cy="4.34" r="23.54" fx="21.07" fy="4.34">
   <stop offset="0" style="stop-opacity:1; stop-color:#BF7200"/>
   <stop offset="0.811765" style="stop-opacity:1; stop-color:#DF8500"/>
   <stop offset="1" style="stop-opacity:1; stop-color:#FF9800"/>
  </radialGradient>
 </defs>
 <g id="Camada_x0020_1">
  <metadata id="CorelCorpID_0Corel-Layer"/>
  <path class="fil0" d="M30.98 0c17.11,0 30.98,13.87 30.98,30.98 0,17.11 -13.87,30.98 -30.98,30.98 -17.11,0 -30.98,-13.87 -30.98,-30.98 0,-17.11 13.87,-30.98 30.98,-30.98zm0 3.91c14.95,0 27.06,12.12 27.06,27.06 0,14.95 -12.12,27.06 -27.06,27.06 -14.95,0 -27.06,-12.12 -27.06,-27.06 0,-14.95 12.12,-27.06 27.06,-27.06z"/>
  <path class="fil1" d="M20.31 14.87l21.34 0c3.23,0 5.85,2.62 5.85,5.85l0 20.51c0,3.23 -2.62,5.85 -5.85,5.85l-21.34 0c-3.23,0 -5.85,-2.62 -5.85,-5.85l0 -20.51c0,-3.23 2.62,-5.85 5.85,-5.85zm1.58 22.59l0 -14.16c0,-0.1 0.04,-0.15 0.14,-0.15 0.23,0 0.45,0 0.77,-0.01 0.33,-0.01 0.67,-0.01 1.05,-0.03 0.37,-0.01 0.77,-0.01 1.2,-0.03 0.43,-0.01 0.84,-0.01 1.25,-0.01 1.13,0 2.06,0.14 2.83,0.43 0.69,0.23 1.32,0.62 1.85,1.13 0.44,0.44 0.78,0.98 1,1.57 0.21,0.58 0.32,1.17 0.32,1.79 0,1.18 -0.28,2.16 -0.83,2.93 -0.55,0.77 -1.32,1.35 -2.22,1.68 -0.94,0.34 -1.97,0.47 -3.1,0.47 -0.33,0 -0.55,0 -0.69,-0.01 -0.14,-0.01 -0.33,-0.01 -0.59,-0.01l0 4.42c0.01,0.1 -0.05,0.18 -0.15,0.19l-2.67 0c-0.11,0 -0.17,-0.05 -0.17,-0.18l0 0zm3 -11.66l0 4.63c0.19,0.01 0.37,0.03 0.54,0.03l0.73 0c0.54,0 1.07,-0.08 1.58,-0.25 0.44,-0.12 0.83,-0.39 1.13,-0.73 0.29,-0.34 0.43,-0.81 0.43,-1.42 0.01,-0.43 -0.1,-0.85 -0.32,-1.23 -0.23,-0.36 -0.56,-0.63 -0.96,-0.78 -0.51,-0.21 -1.06,-0.29 -1.62,-0.28 -0.36,0 -0.68,0 -0.94,0.01 -0.28,-0.01 -0.47,0 -0.56,0.01zm15.99 3.79c-0.41,-0.22 -0.85,-0.37 -1.32,-0.47 -0.51,-0.11 -1.02,-0.18 -1.54,-0.18 -0.28,-0.01 -0.57,0.03 -0.83,0.1 -0.18,0.04 -0.33,0.14 -0.43,0.27 -0.07,0.11 -0.11,0.25 -0.11,0.37 0,0.12 0.06,0.25 0.14,0.36 0.12,0.15 0.29,0.28 0.47,0.37 0.32,0.17 0.65,0.32 0.98,0.45 0.74,0.25 1.46,0.59 2.12,1 0.45,0.29 0.83,0.67 1.09,1.14 0.22,0.44 0.33,0.92 0.32,1.42 0.01,0.65 -0.18,1.29 -0.54,1.83 -0.39,0.55 -0.92,0.98 -1.54,1.23 -0.68,0.29 -1.5,0.44 -2.49,0.44 -0.63,0 -1.25,-0.06 -1.87,-0.18 -0.48,-0.08 -0.96,-0.23 -1.41,-0.44 -0.1,-0.05 -0.16,-0.15 -0.15,-0.26l0 -2.39c0,-0.04 0.01,-0.1 0.05,-0.12 0.04,-0.03 0.08,-0.01 0.12,0.01 0.54,0.32 1.1,0.54 1.71,0.68 0.52,0.14 1.07,0.21 1.62,0.21 0.52,0 0.89,-0.07 1.14,-0.19 0.22,-0.1 0.37,-0.33 0.37,-0.58 0,-0.19 -0.11,-0.37 -0.33,-0.55 -0.22,-0.18 -0.68,-0.38 -1.35,-0.65 -0.7,-0.25 -1.35,-0.58 -1.95,-0.99 -0.43,-0.3 -0.78,-0.7 -1.05,-1.17 -0.22,-0.44 -0.33,-0.92 -0.32,-1.4 0,-0.59 0.17,-1.16 0.47,-1.66 0.34,-0.55 0.85,-0.99 1.44,-1.27 0.65,-0.33 1.46,-0.48 2.44,-0.48 0.56,0 1.14,0.04 1.71,0.12 0.41,0.05 0.81,0.17 1.18,0.32 0.06,0.01 0.11,0.07 0.14,0.12 0.01,0.05 0.03,0.11 0.03,0.16l0 2.24c0,0.05 -0.03,0.11 -0.07,0.14 -0.12,0.03 -0.19,0.03 -0.25,0l0 0z"/>
 </g>
</svg>
