<?xml version="1.0" encoding="UTF-8"?>
<!DOCTYPE svg PUBLIC "-//W3C//DTD SVG 1.1//EN" "http://www.w3.org/Graphics/SVG/1.1/DTD/svg11.dtd">
<!-- Creator: CorelDRAW 2019 (64 Bit) -->
<svg xmlns="http://www.w3.org/2000/svg" xml:space="preserve" width="6.7732mm" height="6.7732mm" version="1.1" style="shape-rendering:geometricPrecision; text-rendering:geometricPrecision; image-rendering:optimizeQuality; fill-rule:evenodd; clip-rule:evenodd"
viewBox="0 0 61.96 61.96"
 xmlns:xlink="http://www.w3.org/1999/xlink">
 <defs>
  <style type="text/css">
   <![CDATA[
    .fil1 {fill:#FF9800}
    .fil0 {fill:url(#id0)}
   ]]>
  </style>
  <radialGradient id="id0" gradientUnits="objectBoundingBox" cx="34.0002%" cy="6.99965%" r="37.9998%" fx="34.0002%" fy="6.99965%">
   <stop offset="0" style="stop-opacity:1; stop-color:#BF7200"/>
   <stop offset="0.811765" style="stop-opacity:1; stop-color:#DF8500"/>
   <stop offset="1" style="stop-opacity:1; stop-color:#FF9800"/>
  </radialGradient>
 </defs>
 <g id="Camada_x0020_1">
  <metadata id="CorelCorpID_0Corel-Layer"/>
  <path class="fil0" d="M30.98 0c17.11,0 30.98,13.87 30.98,30.98 0,17.11 -13.87,30.98 -30.98,30.98 -17.11,0 -30.98,-13.87 -30.98,-30.98 0,-17.11 13.87,-30.98 30.98,-30.98zm0 3.91c14.95,0 27.06,12.12 27.06,27.06 0,14.95 -12.12,27.06 -27.06,27.06 -14.95,0 -27.06,-12.12 -27.06,-27.06 0,-14.95 12.12,-27.06 27.06,-27.06z"/>
  <g id="react-2.svg">
   <g>
    <path class="fil1" d="M52.02 30.98c0,-2.79 -3.49,-5.43 -8.84,-7.07 1.23,-5.45 0.69,-9.79 -1.73,-11.18 -0.56,-0.33 -1.21,-0.48 -1.92,-0.48l0 1.91c0.4,0 0.71,0.08 0.98,0.22 1.17,0.67 1.67,3.22 1.28,6.49 -0.09,0.81 -0.25,1.66 -0.44,2.52 -1.68,-0.41 -3.52,-0.73 -5.45,-0.93 -1.16,-1.59 -2.36,-3.03 -3.57,-4.29 2.8,-2.6 5.42,-4.02 7.2,-4.02l0 -1.91c-2.36,0 -5.45,1.68 -8.57,4.6 -3.12,-2.9 -6.21,-4.56 -8.57,-4.56l0 1.91c1.77,0 4.41,1.42 7.2,4 -1.2,1.26 -2.4,2.69 -3.54,4.28 -1.94,0.21 -3.77,0.52 -5.45,0.94 -0.2,-0.86 -0.34,-1.69 -0.45,-2.49 -0.4,-3.28 0.09,-5.82 1.25,-6.5 0.26,-0.15 0.59,-0.22 0.99,-0.22l0 -1.91c-0.72,0 -1.37,0.15 -1.94,0.48 -2.41,1.39 -2.95,5.72 -1.71,11.16 -5.33,1.65 -8.81,4.28 -8.81,7.06 0,2.79 3.49,5.43 8.84,7.07 -1.23,5.45 -0.69,9.79 1.73,11.18 0.56,0.33 1.21,0.48 1.93,0.48 2.36,0 5.45,-1.68 8.57,-4.6 3.12,2.9 6.21,4.56 8.57,4.56 0.72,0 1.37,-0.15 1.94,-0.48 2.41,-1.39 2.95,-5.72 1.71,-11.16 5.32,-1.64 8.79,-4.28 8.79,-7.06l0 0zm-11.17 -5.72c-0.32,1.11 -0.71,2.25 -1.16,3.39 -0.35,-0.69 -0.72,-1.37 -1.12,-2.06 -0.4,-0.69 -0.82,-1.36 -1.24,-2.01 1.22,0.18 2.39,0.4 3.52,0.68zm-3.93 9.13c-0.67,1.16 -1.35,2.25 -2.07,3.28 -1.28,0.11 -2.57,0.17 -3.88,0.17 -1.3,0 -2.59,-0.06 -3.86,-0.16 -0.71,-1.02 -1.41,-2.11 -2.08,-3.26 -0.65,-1.12 -1.24,-2.26 -1.78,-3.41 0.53,-1.15 1.13,-2.3 1.77,-3.42 0.67,-1.16 1.36,-2.26 2.07,-3.28 1.28,-0.11 2.57,-0.17 3.88,-0.17 1.3,0 2.59,0.06 3.86,0.16 0.71,1.02 1.41,2.11 2.08,3.26 0.65,1.12 1.24,2.26 1.78,3.41 -0.54,1.15 -1.13,2.3 -1.78,3.42zm2.77 -1.12c0.46,1.15 0.86,2.3 1.18,3.41 -1.12,0.27 -2.31,0.51 -3.53,0.69 0.42,-0.66 0.84,-1.34 1.23,-2.03 0.39,-0.69 0.76,-1.38 1.12,-2.07l0 0zm-8.7 9.15c-0.8,-0.82 -1.6,-1.74 -2.38,-2.75 0.77,0.03 1.56,0.06 2.36,0.06 0.81,0 1.6,-0.02 2.38,-0.06 -0.77,1 -1.57,1.92 -2.36,2.75zm-6.38 -5.05c-1.22,-0.18 -2.39,-0.4 -3.52,-0.68 0.32,-1.11 0.71,-2.25 1.16,-3.39 0.35,0.69 0.72,1.37 1.12,2.06 0.4,0.69 0.82,1.36 1.23,2.01zm6.34 -17.85c0.8,0.82 1.6,1.74 2.38,2.75 -0.77,-0.03 -1.56,-0.06 -2.36,-0.06 -0.81,0 -1.6,0.02 -2.38,0.06 0.77,-1 1.57,-1.92 2.36,-2.75zm-6.35 5.05c-0.42,0.66 -0.84,1.34 -1.23,2.03 -0.4,0.69 -0.76,1.37 -1.12,2.06 -0.46,-1.15 -0.86,-2.3 -1.18,-3.41 1.12,-0.27 2.31,-0.5 3.53,-0.68l0 0zm-7.76 10.74c-3.04,-1.3 -5,-2.99 -5,-4.34 0,-1.35 1.96,-3.05 5,-4.34 0.74,-0.32 1.54,-0.6 2.38,-0.87 0.49,1.68 1.13,3.43 1.93,5.22 -0.79,1.78 -1.42,3.52 -1.9,5.2 -0.85,-0.27 -1.66,-0.56 -2.4,-0.87l0 0zm4.61 12.26c-1.17,-0.67 -1.67,-3.22 -1.28,-6.49 0.09,-0.81 0.25,-1.66 0.44,-2.52 1.68,0.41 3.52,0.73 5.45,0.93 1.16,1.59 2.36,3.03 3.57,4.29 -2.8,2.6 -5.42,4.02 -7.2,4.02 -0.39,-0.01 -0.71,-0.09 -0.97,-0.23l0 0zm20.34 -6.54c0.4,3.28 -0.09,5.82 -1.25,6.5 -0.26,0.15 -0.59,0.22 -0.99,0.22 -1.78,0 -4.41,-1.42 -7.2,-4 1.2,-1.26 2.4,-2.69 3.54,-4.28 1.94,-0.21 3.77,-0.52 5.45,-0.94 0.2,0.87 0.35,1.7 0.45,2.5l0 0zm3.3 -5.72c-0.74,0.32 -1.54,0.6 -2.38,0.87 -0.49,-1.68 -1.13,-3.43 -1.93,-5.22 0.79,-1.78 1.42,-3.52 1.9,-5.2 0.85,0.27 1.65,0.56 2.41,0.88 3.04,1.3 5,2.99 5,4.34 -0.01,1.35 -1.97,3.05 -5.01,4.34l0 0z"/>
    <circle class="fil1" cx="30.97" cy="30.98" r="3.92"/>
   </g>
  </g>
 </g>
</svg>
