<?xml version="1.0" encoding="UTF-8"?>
<!DOCTYPE svg PUBLIC "-//W3C//DTD SVG 1.1//EN" "http://www.w3.org/Graphics/SVG/1.1/DTD/svg11.dtd">
<!-- Creator: CorelDRAW 2019 (64 Bit) -->
<svg xmlns="http://www.w3.org/2000/svg" xml:space="preserve" width="6.7732mm" height="6.7732mm" version="1.1" style="shape-rendering:geometricPrecision; text-rendering:geometricPrecision; image-rendering:optimizeQuality; fill-rule:evenodd; clip-rule:evenodd"
viewBox="0 0 1191.71 1191.71"
 xmlns:xlink="http://www.w3.org/1999/xlink">
 <defs>
  <style type="text/css">
   <![CDATA[
    .fil1 {fill:#FF9800}
    .fil2 {fill:white}
    .fil0 {fill:url(#id0)}
   ]]>
  </style>
  <radialGradient id="id0" gradientUnits="objectBoundingBox" cx="34.0002%" cy="6.99965%" r="37.9998%" fx="34.0002%" fy="6.99965%">
   <stop offset="0" style="stop-opacity:1; stop-color:#BF7200"/>
   <stop offset="0.811765" style="stop-opacity:1; stop-color:#DF8500"/>
   <stop offset="1" style="stop-opacity:1; stop-color:#FF9800"/>
  </radialGradient>
 </defs>
 <g id="Camada_x0020_1">
  <metadata id="CorelCorpID_0Corel-Layer"/>
  <path class="fil0" d="M595.86 0c329.09,0 595.86,266.77 595.86,595.86 0,329.09 -266.77,595.86 -595.86,595.86 -329.09,0 -595.86,-266.77 -595.86,-595.86 0,-329.09 266.77,-595.86 595.86,-595.86zm0 75.29c287.51,0 520.57,233.06 520.57,520.57 0,287.51 -233.06,520.57 -520.57,520.57 -287.51,0 -520.57,-233.06 -520.57,-520.57 0,-287.51 233.06,-520.57 520.57,-520.57z"/>
  <g id="cucumber.svg">
   <path class="fil1" d="M363.49 369.78c-105.23,0 -190.39,85.4 -190.39,190.94 0,92.92 66.4,170.1 154.06,187.29l0 54.65c113.96,-17.23 214.85,-107.93 222.38,-227 4.54,-71.66 -31.09,-144.84 -91.19,-180.36 -3.45,-2.04 -6.95,-4.06 -10.54,-5.82 -3.68,-1.81 -7.44,-3.59 -11.28,-5.1 -1.21,-0.51 -2.39,-0.99 -3.62,-1.46 -3.34,-1.25 -6.72,-2.64 -10.17,-3.64 -18.63,-6.16 -38.55,-9.48 -59.24,-9.48z"/>
   <path class="fil2" d="M402.93 440.34c-6.53,-0.67 -13.39,1.6 -18.19,7.3 -3.5,4.68 -5.68,9.2 -8.02,13.86 -6.99,16.36 -4.66,33.89 5.82,46.75 16.31,-3.5 30.16,-13.95 37.14,-30.32 2.34,-4.66 3.64,-10.66 3.64,-15.32 0.74,-12.42 -9.52,-21.17 -20.39,-22.27l0 0zm-84.84 1.09c-10.63,1.02 -20.74,9.5 -20.74,21.18 0,4.66 1.3,10.66 3.64,15.32 6.99,16.36 21.92,26.81 38.23,30.32 9.33,-12.86 11.72,-30.39 4.73,-46.75 -2.34,-4.66 -4.52,-9.27 -8.02,-12.77 -4.8,-5.7 -11.45,-7.9 -17.84,-7.3l0 0zm-57.15 56.23c-18.39,0.95 -26.59,24.1 -11.3,36.14 4.66,3.52 9.17,6.07 13.83,8.41 16.31,7 35.17,4.59 49.16,-4.75 -3.5,-15.18 -15.36,-29.14 -31.67,-36.16 -5.82,-2.32 -10.56,-3.64 -16.38,-3.64 -1.32,-0.14 -2.43,-0.07 -3.64,0l0 0zm179.5 70.84c-10.68,-0.21 -21.48,2.92 -30.23,8.76 3.5,15.18 15.38,29.14 31.69,36.14 5.82,2.34 10.56,3.66 16.38,3.66 20.97,1.16 31.23,-24.83 14.92,-36.51 -4.66,-3.52 -9.17,-5.7 -13.83,-8.04 -6.12,-2.62 -12.53,-3.89 -18.93,-4.01l0 0zm-159.13 1.09c-6.4,0.12 -12.81,1.39 -18.93,4.01 -5.82,2.34 -10.33,4.89 -13.83,8.41 -15.15,12.84 -4.96,37.32 16.01,36.14 5.84,0 11.74,-1.32 16.4,-3.64 16.31,-7.02 27.89,-20.97 30.21,-36.16 -8.55,-5.72 -18.62,-8.76 -28.91,-8.76 -0.32,0 -0.63,0 -0.95,0l0 0zm88.85 44.55c-16.31,3.5 -30.16,13.93 -37.14,30.3 -2.32,4.68 -3.64,10.29 -3.64,14.97 -1.16,19.86 25.85,30.53 37.51,15.34 3.48,-4.68 5.67,-9.2 8.01,-13.88 6.99,-15.18 4.59,-32.71 -4.73,-46.73zm43.32 1.09c-9.31,12.84 -11.72,30.39 -4.73,46.73 2.34,4.68 4.52,9.27 8.02,12.79 12.81,14.01 39.75,3.64 38.58,-13.88 0,-4.68 -1.3,-10.66 -3.64,-15.34 -6.99,-16.35 -21.91,-26.8 -38.23,-30.3l0 0z"/>
  </g>
  <path class="fil1" d="M981.39 448.52l-119.59 134.28c-0.69,0.74 -1.65,1.16 -2.67,1.16 -1,0 -1.99,-0.42 -2.67,-1.16l-61.04 -62.99c-0.53,-0.63 -0.81,-1.44 -0.81,-2.27 0,-0.83 0.28,-1.64 0.81,-2.29l20.15 -25.85c0.69,-0.95 1.79,-1.51 2.97,-1.51 1.16,0 2.27,0.56 2.96,1.51l34.17 37.81c0.69,0.83 1.71,1.3 2.78,1.3 1.09,0 2.11,-0.48 2.8,-1.3l95.2 -130.52c0.3,-0.44 0.46,-0.95 0.46,-1.48 0,-1.41 -1.09,-2.55 -2.5,-2.62l-335.28 0c-1.58,0 -2.85,1.28 -2.85,2.85l0 381.52c0,1.57 1.27,2.85 2.85,2.85l364.44 0c1.57,0 2.85,-1.28 2.85,-2.85l0 -326.75c0.09,-0.26 0.14,-0.56 0.14,-0.84 0,-1.46 -1.2,-2.66 -2.66,-2.66 -1.13,0 -2.13,0.72 -2.5,1.79l0 0zm-256.93 290.54c-1.53,0.07 -3.1,0.11 -4.63,0.11 -22.35,0 -43.97,-8.15 -60.74,-22.89 -0.56,-0.65 -0.88,-1.48 -0.88,-2.34 0,-0.86 0.32,-1.69 0.88,-2.32l14.23 -19.93c-0.25,-0.49 -0.39,-1.06 -0.39,-1.6 0,-0.48 0.09,-0.93 0.26,-1.35 12.95,12 29.96,18.67 47.63,18.67 0.07,0 0.14,0 0.21,0 18.69,0 27.78,-8.66 27.78,-17.77 0,-28.24 -92.02,-8.89 -92.02,-69.01 0,-26.53 22.78,-48.63 60.6,-48.63 1.06,-0.04 2.13,-0.05 3.18,-0.05 20.6,0 40.61,7.11 56.6,20.09 0.63,0.65 0.99,1.53 0.99,2.45 0,0.91 -0.35,1.79 -0.99,2.45l-14.01 19.48c-0.67,0.9 -1.72,1.43 -2.83,1.43 -0.84,0 -1.65,-0.3 -2.29,-0.84 -12.25,-9.73 -27.45,-15.04 -43.09,-15.04 -0.21,0 -0.44,0 -0.65,0 -14.59,0 -22.78,6.49 -22.78,16.06 0,25.39 91.81,8.43 91.81,68.32 0,28.94 -20.85,51.02 -64.01,51.02l5.12 1.72zm234.27 -177.56c0,0.05 0,0.09 0,0.12 0,1.71 -1.37,3.08 -3.08,3.08 -0.04,0 -0.07,0 -0.11,0l-122.9 0c-0.51,0.05 -0.91,0.49 -0.91,1.02 0,0.04 0,0.07 0.02,0.11 2.66,15.34 15.96,26.53 31.53,26.53 0.88,0 1.76,-0.04 2.62,-0.11 10.45,-0.21 20.62,-3.55 29.15,-9.57 0.56,-0.46 1.27,-0.7 1.99,-0.7 1.04,0 2.01,0.53 2.57,1.39l10.26 14.92c0.33,0.51 0.51,1.11 0.51,1.72 0,0.97 -0.44,1.88 -1.2,2.5 -13,9.48 -28.68,14.59 -44.78,14.59 -0.63,0 -1.28,-0.02 -1.92,-0.02 -1.11,0.05 -2.23,0.09 -3.34,0.09 -33.2,0 -60.14,-26.92 -60.14,-60.12 0,-0.79 0.02,-1.6 0.05,-2.38 -0.02,-0.56 -0.04,-1.14 -0.04,-1.72 0,-33.38 27.1,-60.47 60.49,-60.47 0.33,0 0.7,0.02 1.04,0.02 35.42,0 59.45,26.53 59.45,65.36l38.73 3.64z"/>
 </g>
</svg>
